<svg xmlns="http://www.w3.org/2000/svg" viewBox="0 0 512 512" width="512" height="512">
  <rect x="6" y="6" width="500" height="500" rx="112" fill="#1C1C1E"/>
  <ellipse cx="256" cy="292" rx="108" ry="120" fill="#EC9E26" opacity="0.16"/>
  <circle cx="256" cy="104" r="15" fill="none" stroke="#1CB2B0" stroke-width="10"/>
  <path d="M256 119 v28" stroke="#1CB2B0" stroke-width="8" stroke-linecap="round"/>
  <path fill="#1CB2B0" d="M164 198 L256 140 L348 198 Z"/>
  <circle cx="256" cy="152" r="9" fill="#148F8E"/>
  <rect x="184" y="192" width="144" height="204" rx="16" fill="#241E16" stroke="#EC9E26" stroke-width="12"/>
  <rect x="202" y="214" width="50" height="76" rx="7" fill="#141312"/>
  <rect x="260" y="214" width="50" height="76" rx="7" fill="#141312"/>
  <rect x="202" y="300" width="50" height="76" rx="7" fill="#141312"/>
  <rect x="260" y="300" width="50" height="76" rx="7" fill="#141312"/>
  <ellipse cx="256" cy="268" rx="32" ry="62" fill="#EC9E26" opacity="0.5"/>
  <ellipse cx="256" cy="272" rx="24" ry="52" fill="#F3C15B"/>
  <ellipse cx="256" cy="280" rx="12" ry="30" fill="#FFF4C8"/>
  <rect x="208" y="396" width="96" height="14" rx="4" fill="#D4A24A"/>
  <rect x="226" y="410" width="18" height="20" rx="3" fill="#D4A24A"/>
  <rect x="268" y="410" width="18" height="20" rx="3" fill="#D4A24A"/>
</svg>
